# xmcd
#
# Track frame offsets: 
#        150
#        17747
#        30775
#        43335
#        54111
#        71206
#        81628
#        96642
#        112579
#        123059
#        134234
#        154399
#        167363
#        178463
#        189043
#        201054
#        213050
#        223134
#        233382
#        248095
#        260780
#        274096
#        283580
#        295160
#        304197
#        317862
#        332598
#        344103
#
# Disc length: 4769 seconds
#
# Revision: 0
# Processed by: cddbd v1.5.2PL0 Copyright (c) Steve Scherf et al.
# Submitted via: ExactAudioCopyFreeDBPlugin 1.0
#
DISCID=a7129f1c
DTITLE=Various Artist - How Britain Got The Blues 4: Rockhouse:  CD 1
DYEAR=2013
DGENRE=Blues
TTITLE0=Ray Charles - Rockhouse
TTITLE1=James Brown - Mashed Potatoes U.S.A.
TTITLE2=Sarah Vaughan - One Mint Julep
TTITLE3=Benny Spellman - Lipstick Traces (On A Cigarette)
TTITLE4=Johhny Griffin Orchestra - Wade In The Water
TTITLE5=Ray Charles - Get On The Right Track
TTITLE6=Mose Allison - Parchman Farm
TTITLE7=James Brown - Night Train
TTITLE8=Jessie Hill - Ooh Poo Pah Doo, Pt 1
TTITLE9=Chris Kenner - Land Of 1000 Dances
TTITLE10=Earl King - Come On, Pts 1 and 2
TTITLE11=Ray Bryant Combo - Sack Of Woe
TTITLE12=Mongo Santamaria Band - Watermelon Man
TTITLE13=Prince La La - She Put The Hurt On Me
TTITLE14=Mose Allison - The Seventh Son
TTITLE15=The Mar-Keys - Last Night
TTITLE16=Ray Charles - Sticks And Stones
TTITLE17=Gene McDaniels - Point Of No Return
TTITLE18=James Brown - Shout And Shimmy
TTITLE19=The Miracles - Shop Around
TTITLE20=Booker T. and The MG's - Green Onions
TTITLE21=Lee Dorsey - Do Re Mi
TTITLE22=Oscar Brown Jr. - Work Song
TTITLE23=Paul Anka - Eso Beso (That Kisss)
TTITLE24=Ray Charles - I Believe To My Soul
TTITLE25=James Brown - I Don't Mind
TTITLE26=Marvin Gaye - Hitch Hike
TTITLE27=Nina Simone - Gin House Blues
EXTD=
EXTT0=
EXTT1=
EXTT2=
EXTT3=
EXTT4=
EXTT5=
EXTT6=
EXTT7=
EXTT8=
EXTT9=
EXTT10=
EXTT11=
EXTT12=
EXTT13=
EXTT14=
EXTT15=
EXTT16=
EXTT17=
EXTT18=
EXTT19=
EXTT20=
EXTT21=
EXTT22=
EXTT23=
EXTT24=
EXTT25=
EXTT26=
EXTT27=
PLAYORDER=
